/* XPM */
static char * player_small_xpm[] = {
"18 18 52 1",
" 	c #000000",
".	c #EDA831",
"+	c #E59129",
"@	c #E2641A",
"#	c #E77D22",
"$	c #C27820",
"%	c #ED8D27",
"&	c #B2731E",
"*	c #E23208",
"=	c #D17921",
"-	c #F2992C",
";	c #DD962A",
">	c #FF741F",
",	c #BA6018",
"'	c #F39E2D",
")	c #BF9329",
"!	c #FB5D16",
"~	c #D67E22",
"{	c #EDAF32",
"]	c #CF751F",
"^	c #FA4E11",
"/	c #F89C2C",
"(	c #CF8E28",
"_	c #EB9129",
":	c #AC641A",
"<	c #E9A12E",
"[	c #BD8524",
"}	c #F06C1C",
"|	c #F99D2D",
"1	c #F28123",
"2	c #E07D22",
"3	c #C99129",
"4	c #EC7920",
"5	c #E98525",
"6	c #F29D2D",
"7	c #FA6419",
"8	c #D47B21",
"9	c #FB6018",
"0	c #F08A26",
"a	c #F46C1C",
"b	c #EB7A21",
"c	c #CF7B21",
"d	c #D67B21",
"e	c #E23E0C",
"f	c #C2711E",
"g	c #F1751F",
"h	c #F18D27",
"i	c #E68624",
"j	c #D37E22",
"k	c #DE6F1D",
"l	c #EDB033",
"m	c #E87F22",
"                  ",
" .+@              ",
" # $%&            ",
" *= %&-;          ",
"  >   -,')        ",
"  !~    ,{{]      ",
"  ^^      {{/(    ",
"   _~       :/<[  ",
"   }_          ]| ",
"   1}          23 ",
"   4~       ~562  ",
"  77      ~8~5    ",
"  9~    ~0aa      ",
"  b   ~cd0        ",
" ef ~ghh          ",
" i jkg            ",
" lmj              ",
"                  "};
